{
  "asset": { "version": "2.0", "generator": "AxisForge Sample" },
  "scene": 0,
  "scenes": [
    { "name": "SampleScene", "nodes": [0] }
  ],
  "nodes": [
    { "name": "SampleTriangle", "mesh": 0 }
  ],
  "buffers": [
    {
      "uri": "data:application/octet-stream;base64,",
      "byteLength": 102
    }
  ],
  "bufferViews": [
    { "buffer": 0, "byteOffset": 0, "byteLength": 36, "target": 34962 },
    { "buffer": 0, "byteOffset": 36, "byteLength": 36, "target": 34962 },
    { "buffer": 0, "byteOffset": 72, "byteLength": 24, "target": 34962 },
    { "buffer": 0, "byteOffset": 96, "byteLength": 6, "target": 34963 }
  ],
  "accessors": [
    {
      "bufferView": 0,
      "componentType": 5126,
      "count": 3,
      "type": "VEC3",
      "min": [-0.5, -0.5, 0.0],
      "max": [0.5, 0.5, 0.0]
    },
    {
      "bufferView": 1,
      "componentType": 5126,
      "count": 3,
      "type": "VEC3"
    },
    {
      "bufferView": 2,
      "componentType": 5126,
      "count": 3,
      "type": "VEC2"
    },
    {
      "bufferView": 3,
      "componentType": 5123,
      "count": 3,
      "type": "SCALAR"
    }
  ],
  "materials": [
    {
      "name": "TriangleMaterial",
      "pbrMetallicRoughness": {
        "baseColorTexture": { "index": 0 },
        "baseColorFactor": [1.0, 1.0, 1.0, 1.0],
        "metallicFactor": 0.0,
        "roughnessFactor": 0.5
      },
      "emissiveFactor": [0.0, 0.0, 0.0]
    }
  ],
  "images": [
    {
      "uri": "data:image/png;base64,"
    }
  ],
  "samplers": [
    { "magFilter": 9729, "minFilter": 9987, "wrapS": 10497, "wrapT": 10497 }
  ],
  "textures": [
    { "sampler": 0, "source": 0 }
  ],
  "meshes": [
    {
      "name": "TriangleMesh",
      "primitives": [
        {
          "attributes": {
            "POSITION": 0,
            "NORMAL": 1,
            "TEXCOORD_0": 2
          },
          "indices": 3,
          "material": 0
        }
      ]
    }
  ]
}
